{"title":"Witless.Protection.2008.SWESUB.x264.AAC-Zen_Bud","uid":5666006,"size":1415786461,"categoryP":"video","categoryS":"movies","magnet":"?xt=urn:btih:397b5d0dc448301819472f34bc815e0bb7b50a18&amp;dn=Witless.Protection.2008.SWESUB.x264.AAC-Zen_Bud&amp;tr=udp%3A%2F%2Ftracker.openbittorrent.com%3A80&amp;tr=udp%3A%2F%2Fopen.demonii.com%3A1337&amp;tr=udp%3A%2F%2Ftracker.coppersurfer.tk%3A6969&amp;tr=udp%3A%2F%2Fexodus.desync.com%3A6969","seeders":1,"leechers":0,"uploader":"Zen_Bud","files":-1,"time":1278146144,"description":"General\nComplete name                    : Witless Protection.m4v\nFormat                           : MPEG-4\nCodec ID                         : mp42\nFile size                        : 1.32 GiB\nDuration                         : 1h 32mn\nOverall bit rate                 : 2 046 Kbps\nWriting application              : HandBrake svn3413 2010062701\n\nVideo\n\nFormat                           : AVC\nDuration                         : 1h 32mn\nBit rate                         : 1 849 Kbps\nWidth                            : 720 pixels\nHeight                           : 576 pixels\nDisplay aspect ratio             : 16:9\nStream size                      : 1.19 GiB (90%)\nWriting library                  : x264 core 100\n\n\nAudio\n\nFormat                           : AAC\nDuration                         : 1h 32mn\nChannel(s)                       : 6 channels\nChannel positions                : Front: L C R, Side: L R, LFE\nSampling rate                    : 48.0 KHz\nStream size                      : 127 MiB (9%)\nLanguage                         : English\n\n\n\n\n","torrent":{"xt":"urn:btih:397b5d0dc448301819472f34bc815e0bb7b50a18","amp;dn":"Witless.Protection.2008.SWESUB.x264.AAC-Zen_Bud","amp;tr":["udp%3A%2F%2Ftracker.openbittorrent.com%3A80","udp%3A%2F%2Fopen.demonii.com%3A1337","udp%3A%2F%2Ftracker.coppersurfer.tk%3A6969","udp%3A%2F%2Fexodus.desync.com%3A6969"],"infoHash":"397b5d0dc448301819472f34bc815e0bb7b50a18","infoHashBuffer":{"type":"Buffer","data":[57,123,93,13,196,72,48,24,25,71,47,52,188,129,94,11,183,181,10,24]},"announce":[],"urlList":[]}}